<svg width="200" height="200" viewBox="0 0 200 200" fill="none" xmlns="http://www.w3.org/2000/svg">
  <defs>
    <linearGradient id="ga" x1="0" y1="0" x2="1" y2="1">
      <stop stop-color="#00FFFF" offset="0"/>
      <stop stop-color="#8A2BE2" offset="1"/>
    </linearGradient>
  </defs>
  <rect x="12" y="12" width="176" height="176" rx="24" fill="url(#ga)" opacity="0.12" stroke="#00FFFF" stroke-opacity="0.4"/>
  <path d="M60 122c32-14 48-48 48-48s12 26 36 38c8 4 12 16 0 20-36 12-58 12-94 0-12-4-6-16 10-10z" stroke="#8A2BE2" stroke-width="6" stroke-linecap="round" stroke-linejoin="round" fill="#0A0A0A"/>
  <path d="M78 92c-10-8-16-20-18-36" stroke="#00FFFF" stroke-width="6" stroke-linecap="round"/>
  <path d="M116 84c10-8 16-20 18-36" stroke="#FF6600" stroke-width="6" stroke-linecap="round"/>
  <circle cx="100" cy="132" r="8" fill="#FF6600"/>
</svg>
