<svg width="480" height="320" viewBox="0 0 480 320" fill="none" xmlns="http://www.w3.org/2000/svg">
  <defs>
    <linearGradient id="gag1" x1="0" y1="0" x2="1" y2="1">
      <stop stop-color="#00FFFF" offset="0"/>
      <stop stop-color="#8A2BE2" offset="1"/>
    </linearGradient>
  </defs>
  <rect x="16" y="16" width="448" height="288" rx="30" fill="url(#gag1)" opacity="0.12" stroke="#00FFFF" stroke-opacity="0.28"/>
  <path d="M150 206c52-20 78-72 78-72s18 40 58 58c14 6 18 22 0 28-56 18-90 18-146 0-18-6-8-22 10-14z" stroke="#8A2BE2" stroke-width="10" stroke-linecap="round" stroke-linejoin="round" fill="#0A0A0A"/>
  <path d="M190 154c-16-12-26-30-30-54" stroke="#00FFFF" stroke-width="10" stroke-linecap="round"/>
  <path d="M250 146c16-12 26-30 30-54" stroke="#FF6600" stroke-width="10" stroke-linecap="round"/>
  <circle cx="240" cy="216" r="12" fill="#FF6600"/>
</svg>
