<svg width="280" height="560" viewBox="0 0 280 560" fill="none" xmlns="http://www.w3.org/2000/svg">
  <defs>
    <linearGradient id="bg1" x1="0" y1="0" x2="1" y2="1">
      <stop stop-color="#0a0a0a" offset="0"/>
      <stop stop-color="#1a1a1a" offset="1"/>
    </linearGradient>
  </defs>
  <rect width="280" height="560" rx="48" fill="url(#bg1)"/>
  <rect x="16" y="80" width="248" height="464" rx="32" fill="#0a0a0a"/>
  <rect x="24" y="88" width="232" height="448" rx="24" fill="#0f0f0f"/>
  <rect x="40" y="104" width="200" height="416" rx="16" fill="#0a0a0a"/>
  <rect x="100" y="20" width="80" height="4" rx="2" fill="#333"/>
  <circle cx="140" cy="540" r="8" fill="#555"/>
  <rect x="60" y="120" width="160" height="80" rx="12" fill="#1a1a1a"/>
  <rect x="70" y="130" width="60" height="60" rx="8" fill="#00ffff" opacity="0.2"/>
  <rect x="150" y="130" width="60" height="60" rx="8" fill="#8a2be2" opacity="0.2"/>
  <rect x="60" y="210" width="160" height="40" rx="8" fill="#1a1a1a"/>
  <rect x="60" y="260" width="160" height="40" rx="8" fill="#1a1a1a"/>
  <rect x="60" y="310" width="160" height="40" rx="8" fill="#1a1a1a"/>
  <rect x="60" y="360" width="160" height="40" rx="8" fill="#1a1a1a"/>
  <rect x="60" y="410" width="160" height="40" rx="8" fill="#1a1a1a"/>
  <rect x="60" y="460" width="160" height="40" rx="8" fill="#1a1a1a"/>
  <text x="100" y="165" fill="#00ffff" font-family="monospace" font-size="12" text-anchor="middle">Living</text>
  <text x="180" y="165" fill="#8a2be2" font-family="monospace" font-size="12" text-anchor="middle">Bedroom</text>
  <text x="140" y="235" fill="#e8ecff" font-family="monospace" font-size="12" text-anchor="middle">All Lights</text>
  <text x="140" y="285" fill="#e8ecff" font-family="monospace" font-size="12" text-anchor="middle">Plugs</text>
  <text x="140" y="335" fill="#e8ecff" font-family="monospace" font-size="12" text-anchor="middle">Sensors</text>
  <text x="140" y="385" fill="#e8ecff" font-family="monospace" font-size="12" text-anchor="middle">Scenes</text>
  <text x="140" y="435" fill="#e8ecff" font-family="monospace" font-size="12" text-anchor="middle">Energy</text>
  <text x="140" y="485" fill="#e8ecff" font-family="monospace" font-size="12" text-anchor="middle">Settings</text>
</svg>
