<svg width="280" height="560" viewBox="0 0 280 560" fill="none" xmlns="http://www.w3.org/2000/svg">
  <defs>
    <linearGradient id="bg2" x1="0" y1="0" x2="1" y2="1">
      <stop stop-color="#0a0a0a" offset="0"/>
      <stop stop-color="#1a1a1a" offset="1"/>
    </linearGradient>
  </defs>
  <rect width="280" height="560" rx="48" fill="url(#bg2)"/>
  <rect x="16" y="80" width="248" height="464" rx="32" fill="#0a0a0a"/>
  <rect x="24" y="88" width="232" height="448" rx="24" fill="#0f0f0f"/>
  <rect x="40" y="104" width="200" height="416" rx="16" fill="#0a0a0a"/>
  <rect x="100" y="20" width="80" height="4" rx="2" fill="#333"/>
  <circle cx="140" cy="540" r="8" fill="#555"/>
  <text x="140" y="130" fill="#e8ecff" font-family="monospace" font-size="14" text-anchor="middle">Devices</text>
  <rect x="40" y="150" width="200" height="70" rx="12" fill="#1a1a1a"/>
  <circle cx="70" cy="185" r="16" fill="#00ffff" opacity="0.3"/>
  <text x="100" y="180" fill="#e8ecff" font-family="monospace" font-size="12">Smart Light 1</text>
  <text x="100" y="200" fill="#00ffff" font-family="monospace" font-size="10">Living Room</text>
  <rect x="40" y="230" width="200" height="70" rx="12" fill="#1a1a1a"/>
  <circle cx="70" cy="265" r="16" fill="#8a2be2" opacity="0.3"/>
  <text x="100" y="260" fill="#e8ecff" font-family="monospace" font-size="12">Plug A</text>
  <text x="100" y="280" fill="#8a2be2" font-family="monospace" font-size="10">Kitchen</text>
  <rect x="40" y="310" width="200" height="70" rx="12" fill="#1a1a1a"/>
  <circle cx="70" cy="345" r="16" fill="#ff6600" opacity="0.3"/>
  <text x="100" y="340" fill="#e8ecff" font-family="monospace" font-size="12">Sensor Temp</text>
  <text x="100" y="360" fill="#ff6600" font-family="monospace" font-size="10">Hallway</text>
  <rect x="40" y="390" width="200" height="70" rx="12" fill="#1a1a1a"/>
  <circle cx="70" cy="425" r="16" fill="#00ff00" opacity="0.3"/>
  <text x="100" y="420" fill="#e8ecff" font-family="monospace" font-size="12">Camera</text>
  <text x="100" y="440" fill="#00ff00" font-family="monospace" font-size="10">Entrance</text>
</svg>
