<svg width="280" height="560" viewBox="0 0 280 560" fill="none" xmlns="http://www.w3.org/2000/svg">
  <defs>
    <linearGradient id="bg3" x1="0" y1="0" x2="1" y2="1">
      <stop stop-color="#0a0a0a" offset="0"/>
      <stop stop-color="#1a1a1a" offset="1"/>
    </linearGradient>
  </defs>
  <rect width="280" height="560" rx="48" fill="url(#bg3)"/>
  <rect x="16" y="80" width="248" height="464" rx="32" fill="#0a0a0a"/>
  <rect x="24" y="88" width="232" height="448" rx="24" fill="#0f0f0f"/>
  <rect x="40" y="104" width="200" height="416" rx="16" fill="#0a0a0a"/>
  <rect x="100" y="20" width="80" height="4" rx="2" fill="#333"/>
  <circle cx="140" cy="540" r="8" fill="#555"/>
  <text x="140" y="130" fill="#e8ecff" font-family="monospace" font-size="14" text-anchor="middle">Control</text>
  <rect x="40" y="150" width="200" height="120" rx="12" fill="#1a1a1a"/>
  <circle cx="140" cy="210" r="40" fill="#00ffff" opacity="0.2"/>
  <circle cx="140" cy="210" r="32" fill="none" stroke="#00ffff" stroke-width="4"/>
  <text x="140" y="215" fill="#00ffff" font-family="monospace" font-size="12" text-anchor="middle">ON</text>
  <text x="140" y="250" fill="#e8ecff" font-family="monospace" font-size="12" text-anchor="middle">Smart Light 1</text>
  <rect x="40" y="290" width="90" height="60" rx="12" fill="#1a1a1a"/>
  <text x="85" y="325" fill="#8a2be2" font-family="monospace" font-size="12" text-anchor="middle">Dim</text>
  <rect x="150" y="290" width="90" height="60" rx="12" fill="#1a1a1a"/>
  <text x="195" y="325" fill="#8a2be2" font-family="monospace" font-size="12" text-anchor="middle">Color</text>
  <rect x="40" y="370" width="90" height="60" rx="12" fill="#1a1a1a"/>
  <text x="85" y="405" fill="#ff6600" font-family="monospace" font-size="12" text-anchor="middle">Timer</text>
  <rect x="150" y="370" width="90" height="60" rx="12" fill="#1a1a1a"/>
  <text x="195" y="405" fill="#ff6600" font-family="monospace" font-size="12" text-anchor="middle">Schedule</text>
  <rect x="40" y="450" width="200" height="60" rx="12" fill="#1a1a1a"/>
  <text x="140" y="485" fill="#00ff00" font-family="monospace" font-size="12" text-anchor="middle">Apply to Scene</text>
</svg>
