<svg width="200" height="200" viewBox="0 0 200 200" fill="none" xmlns="http://www.w3.org/2000/svg">
  <defs>
    <linearGradient id="ch1" x1="0" y1="0" x2="1" y2="1">
      <stop stop-color="#00FFFF" offset="0"/>
      <stop stop-color="#8A2BE2" offset="1"/>
    </linearGradient>
  </defs>
  <rect x="10" y="10" width="180" height="180" rx="24" fill="url(#ch1)" opacity="0.12" stroke="#00FFFF" stroke-opacity="0.35"/>
  <path d="M60 116V92l40-30 40 30v60H60v-18" stroke="#00FFFF" stroke-width="6" stroke-linecap="round" stroke-linejoin="round" fill="#0A0A0A"/>
  <rect x="94" y="116" width="24" height="34" rx="6" fill="#0A0A0A" stroke="#8A2BE2" stroke-width="4"/>
  <circle cx="106" cy="128" r="5" fill="#FF6600"/>
  <path d="M84 126H70c-6 0-6-8 0-8h14m62 0h14c6 0 6 8 0 8h-14" stroke="#E8ECFF" stroke-width="4" stroke-linecap="round"/>
  <path d="M70 78c8-18 26-30 46-30 20 0 38 12 46 30" stroke="#8A2BE2" stroke-width="6" stroke-linecap="round" stroke-dasharray="10 10"/>
  <circle cx="70" cy="78" r="6" fill="#00FFFF"/>
  <circle cx="162" cy="78" r="6" fill="#00FFFF"/>
</svg>
