<svg width="200" height="200" viewBox="0 0 200 200" fill="none" xmlns="http://www.w3.org/2000/svg">
  <defs>
    <linearGradient id="rh1" x1="0" y1="0" x2="1" y2="1">
      <stop stop-color="#00FFFF" offset="0"/>
      <stop stop-color="#8A2BE2" offset="1"/>
    </linearGradient>
  </defs>
  <rect x="10" y="10" width="180" height="180" rx="24" fill="#0A0A0A" stroke="url(#rh1)" stroke-opacity="0.4"/>
  <path d="M70 92l30-22 30 22v50H70V92z" fill="#0F0F0F" stroke="#00FFFF" stroke-width="4" stroke-linejoin="round"/>
  <rect x="88" y="118" width="24" height="26" rx="6" fill="#111" stroke="#8A2BE2" stroke-width="3"/>
  <circle cx="100" cy="130" r="5" fill="#FF6600"/>
  <rect x="64" y="106" width="72" height="8" rx="4" fill="#00FFFF" fill-opacity="0.2"/>
  <rect x="64" y="78" width="12" height="18" rx="4" fill="#8A2BE2"/>
  <rect x="124" y="78" width="12" height="18" rx="4" fill="#8A2BE2"/>
  <circle cx="80" cy="96" r="6" fill="#00FFFF"/>
  <circle cx="120" cy="96" r="6" fill="#00FFFF"/>
  <path d="M60 142h-8c-6 0-6-8 0-8h8m88 8h8c6 0 6-8 0-8h-8" stroke="#E8ECFF" stroke-width="4" stroke-linecap="round"/>
  <path d="M74 60h52" stroke="#8A2BE2" stroke-width="4" stroke-linecap="round" stroke-dasharray="8 8"/>
  <circle cx="74" cy="60" r="5" fill="#00FFFF"/>
  <circle cx="126" cy="60" r="5" fill="#00FFFF"/>
</svg>
